<svg width="187" height="247" xmlns="http://www.w3.org/2000/svg"><g fill-rule="nonzero" fill="none"><path d="M93.5 246a9.008 9.008 0 0 1-4.46-1.194L87.727 244c-17.062-10.842-32.86-23.717-47.08-38.366C14.35 178.256 1 150.55 1 123.41V36.44c-.004-3.185 1.479-6.171 3.973-8.002l1.458-.956C13.35 23.064 49.994 1 93.5 1s80.294 22.123 87.212 26.572l1.172.776c2.577 1.812 4.121 4.846 4.116 8.091v86.971c0 27.26-13.35 54.966-39.647 82.344-14.234 14.617-30.042 27.46-47.107 38.275l-1.315.777A8.981 8.981 0 0 1 93.5 246z" stroke="#FFF" stroke-width="2" fill="#2F9AEE"/><path d="M88.573 69.735v2.73C75.437 74.631 67 83.562 67 96.202c0 14.42 11.325 24.122 27.972 24.122 3.567 0 15.146.772 15.146 10.652 0 9.88-11.607 10.652-15.146 10.652-7.843 0-13.363-2.967-14.75-7.744l-12.288 3.887c2.605 9.08 10.136 15.073 20.64 16.764v2.73c0 3.72 2.877 6.735 6.426 6.735 1.704 0 3.34-.71 4.544-1.973 1.206-1.263 1.883-2.976 1.883-4.762v-2.73C114.563 152.369 123 143.438 123 130.798c0-14.42-11.325-24.093-27.972-24.122-3.567 0-15.146-.772-15.146-10.652 0-9.88 11.607-10.652 15.146-10.652 7.843 0 13.363 2.967 14.75 7.744l12.288-3.887c-2.605-9.08-10.136-15.073-20.64-16.764v-2.73C101.427 66.015 98.55 63 95 63c-3.55 0-6.427 3.016-6.427 6.735z" fill="#178DDD"/><path d="M92.986 60.98c3.539 0 6.408 3.025 6.408 6.755v2.737c10.472 1.726 17.98 7.736 20.577 16.811l-12.25 3.898c-1.384-4.85-6.888-7.766-14.707-7.766-3.557 0-15.102.774-15.102 10.682 0 9.908 11.574 10.682 15.102 10.682 16.683 0 27.889 9.73 27.889 24.19 0 12.527-8.468 21.483-21.51 23.803v2.738c.16 2.514-1.024 4.913-3.067 6.221a6.128 6.128 0 0 1-6.652 0c-2.043-1.308-3.226-3.707-3.068-6.221v-2.738c-10.472-1.725-17.98-7.736-20.577-16.81l12.25-3.899c1.384 4.85 6.888 7.766 14.707 7.766 3.557 0 15.102-.773 15.102-10.681 0-9.909-11.574-10.682-15.102-10.682-16.683 0-27.889-9.73-27.889-24.19 0-12.527 8.468-21.483 21.51-23.804v-2.767c0-3.73 2.868-6.754 6.407-6.754l-.028.03zm.028-5.98c-5.883 0-10.905 4.478-11.884 10.593C67.835 69.55 59.48 80.32 59.48 94.067c0 17.853 13.803 30.141 33.534 30.141 2.23 0 9.456.357 9.456 4.731s-7.254 4.731-9.456 4.731c-5.645 0-8.835-1.815-9.315-3.51l-1.637-5.624-5.42 1.725-12.25 3.898L59 131.885l1.637 5.683c3.023 9.986 10.808 17.56 20.493 19.935C82.147 163.574 87.151 168 93 168c5.849 0 10.853-4.426 11.87-10.497 13.295-3.957 21.65-14.728 21.65-28.474 0-17.853-13.803-30.112-33.534-30.142-2.23 0-9.456-.327-9.456-4.73 0-4.404 7.254-4.731 9.456-4.731 5.645 0 8.835 1.815 9.315 3.51l1.637 5.684 5.42-1.726 12.25-3.898L127 91.27l-1.637-5.683c-3.023-9.986-10.808-17.559-20.493-19.935-.979-6.115-6.001-10.592-11.884-10.592l.028-.06z" fill="#FFF"/></g></svg>