<?xml version="1.0" encoding="UTF-8"?>
<svg width="464px" height="240px" viewBox="0 0 464 240" version="1.1" xmlns="http://www.w3.org/2000/svg" xmlns:xlink="http://www.w3.org/1999/xlink">
    <!-- Generator: Sketch 63.1 (92452) - https://sketch.com -->
    <title>Group 6</title>
    <desc>Created with Sketch.</desc>
    <defs>
        <rect id="path-1" x="0" y="0" width="464" height="240" rx="3"></rect>
        <rect id="path-3" x="0" y="0" width="176" height="40" rx="20"></rect>
    </defs>
    <g id="How-it-Works-rebranding" stroke="none" stroke-width="1" fill="none" fill-rule="evenodd">
        <g id="How-it-Works-Freelancer" transform="translate(-220.000000, -1027.000000)">
            <g id="Group-6" transform="translate(220.000000, 1027.000000)">
                <g id="Group-5">
                    <g id="01_Atom/Block/StandardUI">
                        <mask id="mask-2" fill="white">
                            <use xlink:href="#path-1"></use>
                        </mask>
                        <g id="Mask"></g>
                        <g id="01_Atom/Color/White" mask="url(#mask-2)" fill="#FFFFFF" fill-rule="evenodd">
                            <g transform="translate(-2.320000, -1.348315)" id="WHITE">
                                <rect x="0" y="0" width="468.64" height="242.696629"></rect>
                            </g>
                        </g>
                    </g>
                    <g id="02_Molecule/Btn/Normal" transform="translate(16.000000, 183.000000)">
                        <mask id="mask-4" fill="white">
                            <use xlink:href="#path-3"></use>
                        </mask>
                        <g id="Mask"></g>
                        <g id="01_Atom/Color/Brand-Blue" mask="url(#mask-4)" fill="#1C3F7F" fill-rule="evenodd">
                            <rect id="Rectangle-Copy-4" x="0" y="0" width="176" height="40"></rect>
                        </g>
                        <g id="01_Atom/Btn/Content/TextWhite" mask="url(#mask-4)" font-family="Inter-Medium, Inter" font-size="14" font-weight="400" line-spacing="14">
                            <g transform="translate(67.692308, 7.000000)" id="Text-White">
                                <text></text>
                            </g>
                        </g>
                    </g>
                    <rect id="Rectangle-2-Copy-16" fill="#D7D7D7" x="16" y="20" width="334" height="21" rx="3"></rect>
                    <path d="M19,120 L76,120 C77.6568542,120 79,121.343146 79,123 L79,162 C79,163.656854 77.6568542,165 76,165 L19,165 C17.3431458,165 16,163.656854 16,162 L16,123 C16,121.343146 17.3431458,120 19,120 Z" id="Rectangle-2-Copy-22" fill="#D7D7D7"></path>
                    <path d="M88,120 L145,120 C146.656854,120 148,121.343146 148,123 L148,162 C148,163.656854 146.656854,165 145,165 L88,165 C86.3431458,165 85,163.656854 85,162 L85,123 C85,121.343146 86.3431458,120 88,120 Z" id="Rectangle-2-Copy-23" fill="#D7D7D7"></path>
                    <path d="M157,120 L214,120 C215.656854,120 217,121.343146 217,123 L217,162 C217,163.656854 215.656854,165 214,165 L157,165 C155.343146,165 154,163.656854 154,162 L154,123 C154,121.343146 155.343146,120 157,120 Z" id="Rectangle-2-Copy-24" fill="#D7D7D7"></path>
                    <rect id="Rectangle-2-Copy-17" fill="#D7D7D7" x="16" y="53" width="268" height="8" rx="3"></rect>
                    <rect id="Rectangle-2-Copy-19" fill="#D7D7D7" x="16" y="88" width="228" height="8" rx="3"></rect>
                    <rect id="Rectangle-2-Copy-18" fill="#D7D7D7" x="16" y="69" width="213" height="8" rx="3"></rect>
                    <rect id="Rectangle-2-Copy-20" fill="#D7D7D7" x="16" y="104" width="181" height="8" rx="3"></rect>
                    <text id="$$$" font-family="Inter-Medium, Inter" font-size="22" font-weight="400" line-spacing="32" letter-spacing="-0.2" fill="#16C153">
                        <tspan x="411.13125" y="36">$$$</tspan>
                    </text>
                    <g id="1496970670_Attach-Copy-2" opacity="0.487332589" transform="translate(42.000000, 133.000000)" fill="#686868">
                        <g id="Layer_1">
                            <path d="M7.42819149,3.69444444 L7.42819149,12.9305556 C7.42819149,14.2882639 6.31705785,15.3935185 4.95212766,15.3935185 C3.58719747,15.3935185 2.47606383,14.2882639 2.47606383,12.9305556 L2.47606383,5.54166667 C2.47606383,5.20131597 2.75291872,4.92592593 3.09507979,4.92592593 C3.43724086,4.92592593 3.71409574,5.20131597 3.71409574,5.54166667 L3.71409574,12.9305556 C3.71409574,13.6100255 4.26904355,14.162037 4.95212766,14.162037 C5.63521177,14.162037 6.19015957,13.6100255 6.19015957,12.9305556 L6.19015957,3.69444444 C6.19015957,2.33673611 5.07902593,1.23148148 3.71409574,1.23148148 C2.34916556,1.23148148 1.23803191,2.33673611 1.23803191,3.69444444 L1.23803191,14.7777778 C1.23803191,16.814956 2.90411336,18.4722222 4.95212766,18.4722222 C7.00014195,18.4722222 8.6662234,16.814956 8.6662234,14.7777778 L8.6662234,5.54166667 C8.6662234,5.20131597 8.94307829,4.92592593 9.28523936,4.92592593 C9.62740043,4.92592593 9.90425532,5.20131597 9.90425532,5.54166667 L9.90425532,14.7777778 C9.90425532,17.4944259 7.68322606,19.7037037 4.95212766,19.7037037 C2.22102926,19.7037037 0,17.4944259 0,14.7777778 L0,3.69444444 C0,1.6572662 1.66608145,0 3.71409574,0 C5.76211004,0 7.42819149,1.6572662 7.42819149,3.69444444 Z" id="Shape"></path>
                        </g>
                    </g>
                    <g id="1496970670_Attach-Copy-3" opacity="0.487332589" transform="translate(113.000000, 133.000000)" fill="#686868">
                        <g id="Layer_1">
                            <path d="M7.42819149,3.69444444 L7.42819149,12.9305556 C7.42819149,14.2882639 6.31705785,15.3935185 4.95212766,15.3935185 C3.58719747,15.3935185 2.47606383,14.2882639 2.47606383,12.9305556 L2.47606383,5.54166667 C2.47606383,5.20131597 2.75291872,4.92592593 3.09507979,4.92592593 C3.43724086,4.92592593 3.71409574,5.20131597 3.71409574,5.54166667 L3.71409574,12.9305556 C3.71409574,13.6100255 4.26904355,14.162037 4.95212766,14.162037 C5.63521177,14.162037 6.19015957,13.6100255 6.19015957,12.9305556 L6.19015957,3.69444444 C6.19015957,2.33673611 5.07902593,1.23148148 3.71409574,1.23148148 C2.34916556,1.23148148 1.23803191,2.33673611 1.23803191,3.69444444 L1.23803191,14.7777778 C1.23803191,16.814956 2.90411336,18.4722222 4.95212766,18.4722222 C7.00014195,18.4722222 8.6662234,16.814956 8.6662234,14.7777778 L8.6662234,5.54166667 C8.6662234,5.20131597 8.94307829,4.92592593 9.28523936,4.92592593 C9.62740043,4.92592593 9.90425532,5.20131597 9.90425532,5.54166667 L9.90425532,14.7777778 C9.90425532,17.4944259 7.68322606,19.7037037 4.95212766,19.7037037 C2.22102926,19.7037037 0,17.4944259 0,14.7777778 L0,3.69444444 C0,1.6572662 1.66608145,0 3.71409574,0 C5.76211004,0 7.42819149,1.6572662 7.42819149,3.69444444 Z" id="Shape"></path>
                        </g>
                    </g>
                    <g id="1496970670_Attach-Copy-4" opacity="0.487332589" transform="translate(182.000000, 133.000000)" fill="#686868">
                        <g id="Layer_1">
                            <path d="M7.42819149,3.69444444 L7.42819149,12.9305556 C7.42819149,14.2882639 6.31705785,15.3935185 4.95212766,15.3935185 C3.58719747,15.3935185 2.47606383,14.2882639 2.47606383,12.9305556 L2.47606383,5.54166667 C2.47606383,5.20131597 2.75291872,4.92592593 3.09507979,4.92592593 C3.43724086,4.92592593 3.71409574,5.20131597 3.71409574,5.54166667 L3.71409574,12.9305556 C3.71409574,13.6100255 4.26904355,14.162037 4.95212766,14.162037 C5.63521177,14.162037 6.19015957,13.6100255 6.19015957,12.9305556 L6.19015957,3.69444444 C6.19015957,2.33673611 5.07902593,1.23148148 3.71409574,1.23148148 C2.34916556,1.23148148 1.23803191,2.33673611 1.23803191,3.69444444 L1.23803191,14.7777778 C1.23803191,16.814956 2.90411336,18.4722222 4.95212766,18.4722222 C7.00014195,18.4722222 8.6662234,16.814956 8.6662234,14.7777778 L8.6662234,5.54166667 C8.6662234,5.20131597 8.94307829,4.92592593 9.28523936,4.92592593 C9.62740043,4.92592593 9.90425532,5.20131597 9.90425532,5.54166667 L9.90425532,14.7777778 C9.90425532,17.4944259 7.68322606,19.7037037 4.95212766,19.7037037 C2.22102926,19.7037037 0,17.4944259 0,14.7777778 L0,3.69444444 C0,1.6572662 1.66608145,0 3.71409574,0 C5.76211004,0 7.42819149,1.6572662 7.42819149,3.69444444 Z" id="Shape"></path>
                        </g>
                    </g>
                </g>
            </g>
        </g>
    </g>
</svg>