<svg width="62" height="93" xmlns="http://www.w3.org/2000/svg"><g transform="translate(1 1)" fill-rule="nonzero" stroke="#FFF" fill="none"><path d="M22.5 8.625C22.5 3.862 26.306 0 31 0s8.5 3.862 8.5 8.625H48V23H14V8.625h8.5z" stroke-linecap="round" stroke-linejoin="round"/><circle cx="32" cy="10" r="3"/><g stroke-linecap="round" stroke-linejoin="round"><path d="M48 9h9a3 3 0 0 1 3 3v76a3 3 0 0 1-3 3H3a3 3 0 0 1-3-3V12a3 3 0 0 1 3-3h11"/><path d="M6.475 39.448l3.875 3.386 7.125-7.386M6.475 56.448l3.875 3.386 7.125-7.386M6.475 76.448l3.875 3.386 7.125-7.386M24.304 38.69h25.714M24.304 57.069h25.714M24.304 75.448h25.714"/></g></g></svg>