<svg width="50" height="53" xmlns="http://www.w3.org/2000/svg"><g stroke="#FFF" fill="none" fill-rule="evenodd"><g transform="translate(12)"><rect x=".5" y=".5" width="26" height="52" rx="8.92"/><path d="M.482 7.227h26.036" stroke-linecap="square"/><ellipse cx="13.5" cy="48.182" rx="1.929" ry="1.927"/><path d="M.482 43.845h26.036" stroke-linecap="square"/></g><path d="M7 12h9a6 6 0 0 1 6 6v5.68a4.086 4.086 0 0 1-4.086 4.086V33l-5.42-5.234H7a6 6 0 0 1-6-6V18a6 6 0 0 1 6-6zM43 19h-9a6 6 0 0 0-6 6v5.68a4.086 4.086 0 0 0 4.086 4.086V40l5.42-5.234H43a6 6 0 0 0 6-6V25a6 6 0 0 0-6-6z" fill="#2F9AEE" fill-rule="nonzero" stroke-linecap="round" stroke-linejoin="round"/><g fill-rule="nonzero" stroke-linecap="round" stroke-linejoin="round"><path d="M5.27 16.923h12.46M5.27 20h12.46M5 23.385h6.5"/></g><g transform="translate(35 27)" fill="#FFF" fill-rule="nonzero"><ellipse cx=".583" cy=".5" rx="1" ry="1"/><ellipse cx="3.5" cy=".5" rx="1" ry="1"/><ellipse cx="6.417" cy=".5" rx="1" ry="1"/></g></g></svg>