<svg width="82" height="89" xmlns="http://www.w3.org/2000/svg"><g stroke="#FFF" fill="none" fill-rule="evenodd"><g transform="translate(19)"><rect x=".5" y=".5" width="44" height="88" rx="8.92"/><path d="M.804 12.136h43.392" stroke-linecap="square"/><ellipse cx="22.5" cy="80.909" rx="3.214" ry="3.236"/><path d="M.804 73.627h43.392" stroke-linecap="square"/></g><path d="M7 20h23a6 6 0 0 1 6 6v14a6 6 0 0 1-6 6h-.81v8.632L20.156 46H7a6 6 0 0 1-6-6V26a6 6 0 0 1 6-6zM75 32H52a6 6 0 0 0-6 6v14a6 6 0 0 0 6 6h.81v8.632L61.844 58H75a6 6 0 0 0 6-6V38a6 6 0 0 0-6-6z" fill="#2F9AEE" fill-rule="nonzero" stroke-linecap="round" stroke-linejoin="round"/><g fill-rule="nonzero" stroke-linecap="round" stroke-linejoin="round"><path d="M8.458 28.5h21.084M8.458 33.5h21.084M8 39h11"/></g><g transform="translate(58 45)" fill="#FFF" fill-rule="nonzero"><circle cx="1" cy="1" r="1"/><circle cx="6" cy="1" r="1"/><circle cx="11" cy="1" r="1"/></g></g></svg>