<svg width="34" height="51" xmlns="http://www.w3.org/2000/svg"><g transform="translate(1 1)" fill-rule="nonzero" stroke="#FFF" fill="none"><path d="M11.5 4.5a4.5 4.5 0 1 1 9 0H25V12H7V4.5h4.5z" stroke-linecap="round" stroke-linejoin="round"/><circle cx="16.5" cy="5.5" r="1.5"/><g stroke-linecap="round" stroke-linejoin="round"><path d="M25.6 5H29a3 3 0 0 1 3 3v38a3 3 0 0 1-3 3H3a3 3 0 0 1-3-3V8a3 3 0 0 1 3-3h4.467"/><path d="M3.453 21.338l2.067 1.817 3.8-3.963M3.453 30.46l2.067 1.817 3.8-3.963M3.453 41.192l2.067 1.817 3.8-3.964M12.962 20.931h13.714M12.962 30.793h13.714M12.962 40.655h13.714"/></g></g></svg>